# xmcd CD database file
#
# Track frame offsets:
#	150
#	14331
#	29902
#	50223
#	63232
#	80659
#	95518
#	120831
#	132582
#	147231
#	160722
#	173876
#	192451
#	208653
#
# Disc length: 2951 seconds
#
# Revision: 3
# Processed by: cddbd v1.5.1PL2 Copyright (c) Steve Scherf et al.
# Submitted via: CDex 1.51
#
DISCID=cd0b850e
DTITLE=Just Beautiful - Smooth Piano Jewels
DYEAR=2005
DGENRE=Jazz
TTITLE0=All This Useless Pain
TTITLE1=It Is Just Like It Is
TTITLE2=Memories
TTITLE3=Students Waltz
TTITLE4=And Then There Was Peace
TTITLE5=It Feels So Easy
TTITLE6=In Love
TTITLE7=A Fussy Day
TTITLE8=When Every Hope Seems To Be Gone
TTITLE9=Lazy Sunday
TTITLE10=And Suddenly It Became Love
TTITLE11=I Am So In Love With You
TTITLE12=Rising Again
TTITLE13=Time To Let Her Go
EXTD=YEAR: 2005
EXTT0=
EXTT1=
EXTT2=
EXTT3=
EXTT4=
EXTT5=
EXTT6=
EXTT7=
EXTT8=
EXTT9=
EXTT10=
EXTT11=
EXTT12=
EXTT13=
PLAYORDER=
